<svg xmlns="http://www.w3.org/2000/svg" id="Layer_1" data-name="Layer 1" viewBox="0 0 200 72"><defs><style>      .cls-1, .cls-2 {        fill: #E52427;      }      .cls-2 {        fill-rule: evenodd;      }    </style></defs><path class="cls-1" d="m79.63,44.4c-.33-.33-.79-.51-1.32-.51-1.07,0-1.85.78-1.85,1.85s.78,1.85,1.85,1.85c.54,0,1-.19,1.32-.52l1.47,1.45c-.71.71-1.7,1.17-2.79,1.17-2.17,0-3.94-1.76-3.94-3.94s1.76-3.94,3.94-3.94c1.08,0,2.06.43,2.77,1.14l-1.45,1.46Zm8.29-2.6h4.89v1.71h-2.82v1.28h2.5v1.74h-2.5v1.45h2.82v1.69h-4.89v-7.87Zm26.66,2.6c-.33-.33-.79-.51-1.32-.51-1.07,0-1.85.78-1.85,1.85s.78,1.85,1.85,1.85c.54,0,1-.19,1.32-.52l1.47,1.45c-.71.71-1.7,1.17-2.79,1.17-2.17,0-3.94-1.76-3.94-3.94s1.76-3.94,3.94-3.94c1.08,0,2.06.43,2.77,1.14l-1.45,1.46Zm12.86,5.27l-1.22-2.09h-1.28v2.09h-2.07v-7.87h3.32c1.6,0,2.9,1.3,2.9,2.9,0,.84-.37,1.6-.93,2.12l1.67,2.86h-2.38Zm-2.5-3.87h1.28c.63,0,1.13-.49,1.13-1.12s-.5-1.13-1.13-1.13h-1.28v2.26Zm11.15-4h4.89v1.71h-2.82v1.28h2.5v1.74h-2.5v1.45h2.82v1.69h-4.89v-7.87Zm11.1,7.87l3.67-7.87h.93l3.71,7.87h-2.07l-.48-1.03h-3.22l-.47,1.03h-2.07Zm3.35-2.77h1.61l-.8-1.73-.81,1.73Zm15.41-2.18l3.2-2.92h.93v7.87h-2.08v-4.04l-2.06,1.88-2.07-1.87v4.03h-2.08v-7.87h.93l3.21,2.92Zm-100.29-2.92h2.07v7.87h-2.07v-7.87Z"></path><path class="cls-1" d="m72.01,21.5h9.75v3.41h-5.63v2.55h4.98v3.47h-4.98v2.89h5.63v3.37h-9.75v-15.69Zm25.99,15.69l-2.43-4.16h-2.55v4.16h-4.12v-15.69h6.61c3.18,0,5.78,2.59,5.78,5.78,0,1.67-.73,3.18-1.86,4.23l3.33,5.69h-4.75Zm-4.98-7.72h2.55c1.26,0,2.26-.98,2.26-2.24s-1-2.26-2.26-2.26h-2.55v4.5Zm15.92-7.97h4.12v15.69h-4.12v-15.69Zm11.47,0h5.82c4.33,0,7.85,3.52,7.85,7.85s-3.52,7.85-7.85,7.85h-5.82v-15.69Zm4.1,11.63h1.74c2.05,0,3.72-1.67,3.72-3.72s-1.67-3.7-3.72-3.7h-1.74v7.43Zm16.57-11.63h4.12v15.69h-4.12v-15.69Zm10.42,15.69l7.32-15.69h1.86l7.39,15.69h-4.12l-.96-2.05h-6.42l-.94,2.05h-4.12Zm6.68-5.52h3.2l-1.59-3.45-1.61,3.45Zm27.71,5.52l-7.41-7.43v7.43h-4.12v-15.69h1.67l7.43,7.41v-7.41h4.12v15.69h-1.7ZM56.42,27.31l6.38-5.82h1.86v15.69h-4.14v-8.06l-4.1,3.75-4.12-3.72v8.04h-4.14v-15.69h1.86l6.4,5.82Z"></path><path class="cls-1" d="m26.04,56.6l-3.02-5.68-2.96,5.59,2.98,5.61,3-5.52Zm10.22-33.21c.04-.16.07-.32.1-.49.16-.84.25-1.71.25-2.61,0-3.73-1.51-7.11-3.96-9.55-2.44-2.44-5.82-3.96-9.55-3.96s-7.11,1.51-9.55,3.96c-2.44,2.45-3.96,5.82-3.96,9.55,0,.95.09,1.85.26,2.7.03.14.06.27.09.41.23-.26.47-.52.71-.77,3.18-3.26,7.59-5.27,12.45-5.27s9.27,2.01,12.45,5.27c.24.25.48.5.7.76Zm-29.06,4.24c-.12-.15-.22-.31-.29-.49-.45-1.06-.8-2.18-1.03-3.35-.23-1.16-.36-2.32-.36-3.49,0-4.86,1.97-9.25,5.15-12.44,3.18-3.18,7.58-5.15,12.44-5.15s9.25,1.97,12.44,5.15c3.18,3.18,5.15,7.58,5.15,12.44,0,1.15-.11,2.29-.33,3.39-.22,1.1-.55,2.19-.98,3.25-.1.24-.24.45-.4.63,1.1,2.34,1.71,4.96,1.71,7.73v.03h0c0,.12-.01.24-.03.36-.1.55-.22,1.09-.36,1.62-.01.06-.02.12-.04.18-.16.58-.35,1.16-.56,1.74h0s-.03.07-.04.1l-.83,1.93c-.03.07-.06.14-.1.21l-2.63,4.94c-.03.07-.07.14-.11.21l-2.69,5.06c-.53.99-1.76,1.36-2.75.84-.99-.53-1.36-1.76-.84-2.75l2.24-4.21-3.03-5.75-3.59,6.79,4.83,9.07c.33.63.31,1.35,0,1.93h0s-5.32,9.8-5.32,9.8c-.54.99-1.77,1.35-2.76.81-.38-.21-.67-.52-.84-.87l-5.24-9.85c-.33-.62-.31-1.33,0-1.9h0s4.75-8.98,4.75-8.98l-3.55-6.67-2.93,5.65,2.23,4.19c.53.99.15,2.22-.84,2.75-.99.53-2.22.15-2.75-.84l-2.73-5.14-2.65-4.98c-.04-.07-.08-.15-.12-.23l-.73-1.67c-.03-.07-.06-.13-.09-.21-.22-.56-.41-1.14-.58-1.73-.15-.53-.28-1.08-.4-1.65-.04-.16-.07-.34-.07-.52v-.25c0-2.74.6-5.34,1.68-7.67Zm2.39,7.74c.08.41.19.82.3,1.23.14.47.29.94.46,1.39,0,0,0,.01,0,.02l.72,1.63.83,1.56,3.42-6.59c.51-1,1.74-1.39,2.74-.88.42.22.73.56.91.95l4.02,7.56,4.1-7.75c.52-.99,1.75-1.38,2.75-.85.38.2.67.51.86.86l3.53,6.7.85-1.6.78-1.79h0c.16-.45.31-.91.45-1.41.01-.06.03-.11.05-.16.09-.35.17-.71.24-1.07-.03-3.79-1.54-7.22-3.97-9.7-2.44-2.5-5.82-4.04-9.54-4.04s-7.09,1.54-9.54,4.04c-2.45,2.51-3.97,5.98-3.97,9.82v.07Z"></path><path class="cls-2" d="m190.64,18.37h.39c.19,0,.32-.03.38-.08.07-.06.1-.13.1-.22,0-.06-.02-.11-.05-.16-.03-.05-.08-.08-.14-.1-.06-.02-.17-.03-.33-.03h-.37v.61Zm-.32,1.13v-2h.69c.24,0,.41.02.51.05.11.04.19.1.25.19.06.09.09.19.09.29,0,.15-.05.27-.16.38-.1.11-.24.17-.42.18.07.03.13.06.17.11.08.08.18.21.3.4l.24.39h-.4l-.18-.32c-.14-.25-.25-.4-.34-.47-.06-.05-.15-.07-.26-.07h-.19v.85h-.32Zm.82-2.58c-.26,0-.52.07-.76.2-.25.13-.44.33-.58.57-.14.25-.21.51-.21.78s.07.52.21.77c.14.25.33.44.58.58.25.14.5.21.77.21s.53-.07.77-.21c.25-.14.44-.33.57-.58.14-.25.2-.5.2-.77s-.07-.53-.21-.78c-.14-.25-.33-.44-.58-.57-.25-.13-.5-.2-.76-.2Zm0-.31c.31,0,.62.08.92.24.3.16.53.39.7.69.17.3.25.61.25.93s-.08.63-.25.93c-.16.3-.39.53-.69.69-.3.16-.6.25-.93.25s-.63-.08-.93-.25c-.3-.16-.53-.39-.69-.69-.17-.3-.25-.6-.25-.93s.08-.64.25-.93c.17-.3.4-.53.7-.69.3-.16.6-.24.92-.24Z"></path></svg>